<?xml version="1.0" encoding="UTF-8"?>
<svg xmlns="http://www.w3.org/2000/svg" xmlns:xlink="http://www.w3.org/1999/xlink" id="Layer_1" viewBox="0 0 891.1 212.72">
  <defs>
    <style>.cls-1{fill:url(#linear-gradient);fill-rule:evenodd;}.cls-1,.cls-2{stroke-width:0px;}.cls-2{fill:#fff;}</style>
    <linearGradient id="linear-gradient" x1="89.31" y1="65.05" x2="276.79" y2="179.1" gradientUnits="userSpaceOnUse">
      <stop offset="0" stop-color="#04d6a2"></stop>
      <stop offset="1" stop-color="#00aeef"></stop>
    </linearGradient>
  </defs>
  <path class="cls-1" d="M179.71,68.19c-4.05-10.48-13.34-17.12-29.48-17.1-14.12.02-26.82,7.91-34.47,14.38v-8.41c-.02-2.04-1.67-3.69-3.71-3.68l-33.63.06.07,45,16.08-.03c1.47,0,2.66,1.18,2.67,2.66,0,1.46-1.19,2.66-2.66,2.67l-16.08.03v5.93s7.27-.01,7.27-.01c1.47,0,2.66,1.19,2.66,2.66,0,1.47-1.19,2.66-2.65,2.67h-7.26s0,5.34,0,5.34l15.23-.03c1.47,0,2.66,1.19,2.67,2.66,0,1.48-1.19,2.67-2.66,2.67l-15.23.03v5.33s7.27-.01,7.27-.01c1.47,0,2.66,1.19,2.66,2.66s-1.19,2.67-2.65,2.67h-7.26s0,5.35,0,5.35l15.23-.03c1.47,0,2.66,1.19,2.67,2.65,0,1.48-1.19,2.67-2.66,2.67l-15.23.03v8.64c.02,2.04,1.67,3.69,3.71,3.68l29.94-.05c2.04,0,3.69-1.66,3.68-3.69l-.11-65.09c4.84-5.26,12.49-10.71,19.75-10.73,8.67-.01,10.1,5.83,10.11,14.1l.1,61.67c0,2.04,1.66,3.69,3.69,3.68l29.53-.05c2.04,0,3.69-1.66,3.68-3.69l-.11-64.49c4.83-5.46,12.7-11.31,20.15-11.33,8.47-.01,9.69,5.83,9.71,14.1l.1,61.67c0,2.04,1.66,3.69,3.69,3.68l33.63-.06-.12-74.23c-.04-21.38-9.74-33.87-32.54-33.83-16.34.03-30.44,10.34-37.49,17.21h0Z"></path>
  <path class="cls-2" d="M321.91,113.72c3.77-3.47,11.01-8.43,18.75-8.43,8.73,0,12.4,4.76,13.79,9.43,3.47-3.37,11.31-9.43,19.84-9.43,11.01,0,14.68,7.04,14.68,16.17v37h-10.22v-34.92c0-5.46-1.49-10.02-7.84-10.02-5.95,0-12.2,4.76-15.58,8.43v36.51h-10.12v-34.92c0-5.46-1.59-10.02-7.94-10.02-5.75,0-11.9,4.56-15.38,8.13v36.81h-10.22v-52.08h10.22v7.34Z"></path>
  <path class="cls-2" d="M411.19,134.84c.69,10.52,5.85,16.77,13.79,16.77,6.65,0,14.09-3.87,19.34-6.75l4.37,6.55c-4.66,2.68-13.79,8.14-24.5,8.14-12.9,0-23.61-8.83-23.61-27.08s10.12-27.18,24.8-27.18,22.92,9.62,22.92,22.72c0,3.87-.69,6.84-.69,6.84h-36.41ZM411.19,128.7h26.98c.2-10.81-4.66-15.77-12.8-15.77s-13.19,6.05-14.19,15.77Z"></path>
  <path class="cls-2" d="M493.92,151.81c-3.97,3.67-10.52,7.74-19.05,7.74-9.03,0-17.56-5.26-17.56-16.77s8.43-16.97,18.35-16.97c6.05,0,14.29,1.98,18.25,2.68v-5.26c0-6.75-2.38-9.92-10.42-9.92-5.56,0-11.71,1.79-19.25,4.27l-3.47-7.34c9.23-3.27,17.26-4.96,24.31-4.96,12.5,0,19.05,4.96,19.05,17.96v35.22h-10.22v-6.65ZM493.92,144.37v-10.22c-3.27-.6-9.72-2.08-14.58-2.08-8.53,0-11.61,4.47-11.61,10.02,0,6.55,4.17,9.23,10.02,9.23,6.35,0,11.51-2.88,16.17-6.94Z"></path>
  <path class="cls-2" d="M558.89,144.57c0,10.02-8.63,14.98-19.64,14.98-9.32,0-18.95-3.57-24.31-6.45l4.37-7.54c5.16,2.78,13.59,5.85,19.64,5.85,5.06,0,9.72-2.18,9.72-6.35,0-5.65-8.73-7.54-15.08-9.23-8.13-2.18-17.56-5.65-17.56-15.87,0-9.03,7.44-14.68,18.95-14.68,8.23,0,16.57,2.88,21.73,5.36l-4.37,7.04c-4.86-2.18-11.81-4.37-16.96-4.37s-9.13,2.18-9.13,6.15c0,5.66,8.14,7.04,13.89,8.63,10.71,2.88,18.75,6.84,18.75,16.47Z"></path>
  <path class="cls-2" d="M605.71,151.51c-4.07,2.98-12.3,8.04-21.13,8.04-11.21,0-14.98-7.04-14.98-16.17v-37h10.22v34.92c0,5.66,1.69,10.02,8.33,10.02s14.09-4.76,17.56-7.84v-37.1h10.22v52.08h-10.22v-6.94Z"></path>
  <path class="cls-2" d="M643.01,117.39c.79-2.08,6.05-12.6,19.64-11.61v9.72c-17.66,0-19.64,16.47-19.64,16.47v26.49h-10.22v-52.08h10.22v11.01Z"></path>
  <path class="cls-2" d="M702.72,151.81c-3.97,3.67-10.52,7.74-19.05,7.74-9.03,0-17.56-5.26-17.56-16.77s8.43-16.97,18.35-16.97c6.05,0,14.29,1.98,18.25,2.68v-5.26c0-6.75-2.38-9.92-10.42-9.92-5.56,0-11.71,1.79-19.25,4.27l-3.47-7.34c9.23-3.27,17.26-4.96,24.31-4.96,12.5,0,19.05,4.96,19.05,17.96v35.22h-10.22v-6.65ZM702.72,144.37v-10.22c-3.27-.6-9.72-2.08-14.58-2.08-8.53,0-11.61,4.47-11.61,10.02,0,6.55,4.17,9.23,10.02,9.23,6.35,0,11.51-2.88,16.17-6.94Z"></path>
  <path class="cls-2" d="M729.31,86.14h10.22v26.69c4.17-3.67,10.02-7.54,18.05-7.54,11.31,0,20.04,8.23,20.04,27.18s-8.73,27.08-20.04,27.08c-8.04,0-13.89-3.77-18.05-7.44v6.35h-10.22v-72.32ZM739.52,121.55v21.82c3.97,4.47,9.52,7.74,15.57,7.74,8.04,0,12.1-6.94,12.1-18.65s-4.07-18.75-12.1-18.75c-6.05,0-11.61,3.37-15.57,7.84Z"></path>
  <path class="cls-2" d="M792.29,158.46v-72.32h10.22v72.32h-10.22Z"></path>
</svg>
