<?xml version="1.0" encoding="UTF-8"?>
<svg xmlns="http://www.w3.org/2000/svg" id="Layer_1" viewBox="0 0 1290 604">
  <defs>
    <style>      .st0 {        fill: #365bff;      }      .st0, .st1, .st2, .st3 {        isolation: isolate;        opacity: .9;      }      .st0, .st2 {        fill-rule: evenodd;      }      .st1 {        fill: #14ebd4;      }      .st2 {        fill: #00c3ff;      }      .st3 {        fill: #6d00c1;      }    </style>
  </defs>
  <path class="st1" d="M858.7,356c-58.1-51.1-133.9-81.9-217.3-81.9-181.9,0-329.4,147.5-329.4,329.4h-161c0-270.8,219.5-490.4,490.4-490.4s237.3,46,323.6,122l-106.3,120.9Z"></path>
  <path class="st0" d="M1051.4,603.5c0-170.1-103.6-316.2-251.5-378.2l62.3-148.5c205.6,86.2,350.2,289.4,350.2,526.6h-161Z"></path>
  <path class="st2" d="M512.3,214.4c-59.1,19.6-112.4,52.4-156.3,95l-112.1-115.5c60.9-59.1,135.1-104.9,217.7-132.3l50.7,152.8Z"></path>
  <path class="st3" d="M1047.3,330c52.8,78.2,83.7,172.5,83.7,274h159c0-138.9-43.6-267.6-118-373.2l-124.7,99.2Z"></path>
</svg>
